<?xml version="1.0" encoding="UTF-8" standalone="no"?>
<!-- Created with Inkscape (http://www.inkscape.org/) -->

<svg
   version="1.1"
   id="svg1"
   width="1254"
   height="1254"
   viewBox="0 0 1254 1254"
   xmlns:xlink="http://www.w3.org/1999/xlink"
   xmlns="http://www.w3.org/2000/svg"
   xmlns:svg="http://www.w3.org/2000/svg">
  <defs
     id="defs1">
    <rect
       x="123.74369"
       y="787.76115"
       width="1037.4582"
       height="346.92426"
       id="rect6" />
    <rect
       x="438.66216"
       y="343.00675"
       width="184.5473"
       height="252.18243"
       id="rect7" />
    <rect
       x="437.69594"
       y="222.22973"
       width="284.06757"
       height="396.14865"
       id="rect5" />
  </defs>
  <g
     id="layer2"
     transform="translate(0,93.912628)">
    <rect
       style="fill:#000000;fill-opacity:1;stroke-width:0.902222"
       id="rect10"
       width="1175.5651"
       height="822.01166"
       x="39.217468"
       y="122.08154"
       rx="58.349194"
       ry="36.347507" />
  </g>
  <g
     id="layer1"
     style="display:inline;opacity:1"
     transform="translate(0,135.28615)">
    <g
       id="g2"
       transform="translate(0,9.6851336)">
      <path
         id="rect3-8-28"
         style="display:inline;fill:#ffffff;fill-opacity:1;stroke-width:0.320072"
         d="m 628.94531,378.8829 c -5.99109,0 -10.81445,4.87608 -10.81445,10.93164 v 187.9961 c 0,6.05556 4.82336,10.92968 10.81445,10.92968 5.9911,0 10.81446,-4.87412 10.81446,-10.92968 v -187.9961 c 0,-6.05556 -4.82336,-10.93164 -10.81446,-10.93164 z m 41.30078,33.8418 c -5.99109,0 -10.81445,5.63205 -10.81445,12.62695 v 118.41797 c 0,6.99491 4.82336,12.62695 10.81445,12.62695 5.9911,0 10.81446,-5.63204 10.81446,-12.62695 V 425.35165 c 0,-6.9949 -4.82336,-12.62695 -10.81446,-12.62695 z m -82,7.23047 c -5.99109,0 -10.81445,5.02534 -10.81445,11.26758 v 105.67578 c 0,6.24223 4.82336,11.26758 10.81445,11.26758 5.9911,0 10.81446,-5.02535 10.81446,-11.26758 V 431.22275 c 0,-6.24224 -4.82336,-11.26758 -10.81446,-11.26758 z m 123.8711,22.10937 c -5.9911,0 -10.81446,5.04072 -10.81446,11.30274 v 64.7832 c 0,6.26201 4.82336,11.30273 10.81446,11.30273 5.99109,0 10.81445,-5.04072 10.81445,-11.30273 v -64.7832 c 0,-6.26202 -4.82336,-11.30274 -10.81445,-11.30274 z M 547.18164,456.9122 c -5.9911,0 -10.8125,4.99838 -10.8125,11.20703 v 30.43359 c 0,6.20866 4.8214,11.20508 10.8125,11.20508 5.9911,0 10.81445,-4.99642 10.81445,-11.20508 v -30.43359 c 0,-6.20865 -4.82335,-11.20703 -10.81445,-11.20703 z m 203.91602,7.46289 c -5.9911,0 -10.81446,5.02053 -10.81446,11.25781 v 22.59961 c 0,6.23728 4.82336,11.25977 10.81446,11.25977 5.99109,0 10.81445,-5.02249 10.81445,-11.25977 V 475.6329 c 0,-6.23728 -4.82336,-11.25781 -10.81445,-11.25781 z" />
      <text
         xml:space="preserve"
         id="text7"
         style="font-style:normal;font-variant:normal;font-weight:600;font-stretch:normal;font-size:151.181px;font-family:Montserrat;-inkscape-font-specification:'Montserrat, Semi-Bold';font-variant-ligatures:normal;font-variant-caps:normal;font-variant-numeric:normal;font-variant-east-asian:normal;writing-mode:lr-tb;direction:ltr;white-space:pre;shape-inside:url(#rect7);display:inline;opacity:1;fill:#ffffff;fill-opacity:1"
         transform="matrix(3.7791582,0,0,3.7791582,-1257.0528,-1137.6063)"><tspan
           x="438.66211"
           y="481.95534"
           id="tspan2">C</tspan></text>
    </g>
    <rect
       style="display:inline;fill:#ffffff;fill-opacity:1;stroke-width:0.902756"
       id="rect1"
       width="1020.6678"
       height="32.067295"
       x="116.66611"
       y="705.05859"
       rx="15.012412"
       ry="25" />
    <g
       id="g4"
       style="display:inline;fill:#13263a;fill-opacity:1"
       transform="translate(0,0.02518477)">
      <rect
         style="display:inline;fill:#ffffff;fill-opacity:1;stroke-width:1.00082"
         id="rect4"
         width="94.319397"
         height="379.87509"
         x="916.80219"
         y="451.62976"
         transform="matrix(0.99107853,-0.13327923,0.14108727,0.98999716,0,0)"
         rx="14.853283"
         ry="14.863515" />
      <ellipse
         style="display:inline;opacity:1;fill:#000000;fill-opacity:1;stroke-width:0.924437"
         id="path4"
         cx="1028.5312"
         cy="379.5625"
         rx="17.290001"
         ry="17.509029" />
    </g>
    <g
       id="g7"
       style="display:inline;opacity:1"
       transform="translate(0,0.58483887)">
      <rect
         style="display:inline;opacity:1;fill:#ffffff;fill-opacity:1;stroke-width:0.99336"
         id="rect3"
         width="110.41382"
         height="415.1778"
         x="850.29016"
         y="283.41516"
         rx="14.763629"
         ry="15.038419" />
      <rect
         style="display:inline;fill:#000000;fill-opacity:1;stroke-width:0.195512"
         id="rect3-8-2"
         width="61.413818"
         height="28.914883"
         x="873.64874"
         y="633.67725"
         rx="6.1714334"
         ry="6.3334298" />
      <rect
         style="display:inline;opacity:1;fill:#000000;fill-opacity:1;stroke-width:0.124903"
         id="rect3-8-2-2-6-1"
         width="73.845955"
         height="13.200959"
         x="868.61609"
         y="383.46967"
         rx="6.4675446"
         ry="6.0573573" />
      <rect
         style="display:inline;opacity:1;fill:#000000;fill-opacity:1;stroke-width:0.12431"
         id="rect3-8-2-2-6"
         width="73.845955"
         height="13.075959"
         x="868.27234"
         y="349.15625"
         rx="6.4675446"
         ry="6" />
    </g>
    <g
       id="g5"
       style="display:inline;opacity:1">
      <rect
         style="display:inline;opacity:1;fill:#ffffff;fill-opacity:1;stroke-width:0.975201"
         id="rect3-8"
         width="106.414"
         height="415.1778"
         x="292"
         y="284"
         rx="14.228782"
         ry="15.038419" />
      <use
         x="0"
         y="0"
         xlink:href="#rect3-8-2-2-6-9-2-1"
         id="use4"
         style="display:inline;opacity:1;fill:#112539;fill-opacity:1"
         transform="matrix(1.0143666,0,0,1,-4.4659195,31.75)" />
      <rect
         style="display:inline;opacity:1;fill:#13263a;fill-opacity:1;stroke-width:0.12069"
         id="rect3-8-2-2-6-9-2-1"
         width="69.606087"
         height="13.075959"
         x="-380.45932"
         y="347.06622"
         rx="6.0961962"
         ry="6"
         transform="scale(-1,1)" />
    </g>
    <g
       id="g6"
       style="display:inline;opacity:1"
       transform="translate(0,-0.05883789)">
      <rect
         style="display:inline;opacity:1;fill:#ffffff;fill-opacity:1;stroke-width:0.986194"
         id="rect2"
         width="115.50865"
         height="452.87598"
         x="156.66701"
         y="246.36066"
         rx="14.622311"
         ry="14.965492" />
      <rect
         style="display:inline;opacity:1;fill:#000000;fill-opacity:1;stroke-width:0.199826"
         id="rect3-8-1"
         width="61.706711"
         height="30.061678"
         x="183.70711"
         y="632.35358"
         rx="4.0082788"
         ry="4.8011894" />
      <rect
         style="display:inline;opacity:1;fill:#000000;fill-opacity:1;stroke-width:0.125052"
         id="rect3-8-2-2-6-9-2"
         width="74.729836"
         height="13.075959"
         x="-251.85117"
         y="356.64645"
         rx="6.5449567"
         ry="6"
         transform="scale(-1,1)" />
      <rect
         style="display:inline;opacity:1;fill:#000000;fill-opacity:1;stroke-width:0.1252"
         id="rect3-8-2-2-6-9"
         width="74.906616"
         height="13.075959"
         x="-251.90662"
         y="318.11612"
         rx="6.5604386"
         ry="6"
         transform="scale(-1,1)" />
    </g>
  </g>
</svg>
