<?xml version="1.0" encoding="UTF-8" standalone="no"?>
<svg
   height="24px"
   viewBox="0 -960 960 960"
   width="24px"
   fill="#1f1f1f"
   version="1.1"
   id="svg1"
   xml:space="preserve"
   xmlns="http://www.w3.org/2000/svg"
   xmlns:svg="http://www.w3.org/2000/svg"><defs
     id="defs1" /><path
     d="m 367,-527 q -47,-47 -47,-113 0,-66 47,-113 47,-47 113,-47 66,0 113,47 47,47 47,113 0,66 -47,113 -47,47 -113,47 -66,0 -113,-47 z m -207,367 v -112 q 0,-34 17.5,-62.5 17.5,-28.5 46.5,-43.5 62,-31 126,-46.5 64,-15.5 130,-15.5 66,0 130,15.5 64,15.5 126,46.5 29,15 46.5,43.5 17.5,28.5 17.5,62.5 v 112 z m 80,-80 h 480 v -32 q 0,-11 -5.5,-20 -5.5,-9 -14.5,-14 -54,-27 -109,-40.5 -55,-13.5 -111,-13.5 -56,0 -111,13.5 -55,13.5 -109,40.5 -9,5 -14.5,14 -5.5,9 -5.5,20 z M 536.5,-583.5 Q 560,-607 560,-640 560,-673 536.5,-696.5 513,-720 480,-720 q -33,0 -56.5,23.5 -23.5,23.5 -23.5,56.5 0,33 23.5,56.5 23.5,23.5 56.5,23.5 33,0 56.5,-23.5 z M 480,-640 Z m 0,400 z"
     id="path1-5"
     style="fill:#1f1f1f"
     transform="matrix(0.5774488,0,0,0.5774488,193.22494,-165.01844)" /><path
     d="M160-160q-33 0-56.5-23.5T80-240v-480q0-33 23.5-56.5T160-800h240l80 80h320q33 0 56.5 23.5T880-640v400q0 33-23.5 56.5T800-160H160Zm0-80h640v-400H447l-80-80H160v480Zm0 0v-480 480Z"
     id="path1" /></svg>
