<?xml version="1.0" encoding="UTF-8" standalone="no"?>
<svg
   height="24px"
   viewBox="0 -960 960 960"
   width="24px"
   fill="#1f1f1f"
   version="1.1"
   id="svg1"
   xml:space="preserve"
   xmlns="http://www.w3.org/2000/svg"
   xmlns:svg="http://www.w3.org/2000/svg"><defs
     id="defs1" /><path
     d="m 160,-160 q -33,0 -56.5,-23.5 Q 80,-207 80,-240 v -480 q 0,-33 23.5,-56.5 Q 127,-800 160,-800 h 240 l 80,80 h 320 q 33,0 56.5,23.5 23.5,23.5 23.5,56.5 v 400 q 0,33 -23.5,56.5 Q 833,-160 800,-160 Z m 0,-80 H 800 V -640 H 447 l -80,-80 H 160 Z m 0,0 v -480 z"
     id="path1" /><g
     style="fill:#1f1f1f"
     id="g2"
     transform="matrix(0.46781411,0,0,0.46781411,255.44923,-216.1956)"><path
       d="m 320,-320 h 480 v -480 h -80 v 280 l -100,-60 -100,60 V -800 H 320 Z m 0,80 q -33,0 -56.5,-23.5 Q 240,-287 240,-320 v -480 q 0,-33 23.5,-56.5 Q 287,-880 320,-880 h 480 q 33,0 56.5,23.5 23.5,23.5 23.5,56.5 v 480 q 0,33 -23.5,56.5 Q 833,-240 800,-240 Z M 160,-80 q -33,0 -56.5,-23.5 Q 80,-127 80,-160 v -560 h 80 v 560 h 560 v 80 z m 360,-720 h 200 z m -200,0 h 480 z"
       id="path1-7" /></g></svg>
